<svg width="1200" height="630" viewBox="0 0 1200 630" fill="none" xmlns="http://www.w3.org/2000/svg">
  <defs>
    <linearGradient id="banner-grad" x1="0%" y1="0%" x2="100%" y2="100%">
      <stop offset="0%" stop-color="#00d2b5" />
      <stop offset="100%" stop-color="#10b981" />
    </linearGradient>
    <pattern id="banner-grid" width="40" height="40" patternUnits="userSpaceOnUse">
      <path d="M 40 0 L 0 0 0 40" fill="none" stroke="#15120e" stroke-width="1"/>
    </pattern>
  </defs>
  <rect width="1200" height="630" fill="#0d1417" />
  <rect width="1200" height="630" fill="url(#banner-grid)" opacity="0.6" />
  
  <circle cx="280" cy="315" r="210" fill="#141b1f" stroke="#1a2327" stroke-width="1.5" />
  <circle cx="280" cy="315" r="210" fill="#00d2b5" opacity="0.03" />

  <!-- Emblem at (280, 315) -->
  <g transform="translate(106.6, 131.4) scale(3.4)">
    <path d="M50 18 L22 38 V68 H48" stroke="#f4f2f1" stroke-width="5" stroke-linecap="round" stroke-linejoin="round" />
    <path d="M50 18 L84 42" stroke="#f4f2f1" stroke-width="5" stroke-linecap="round" />
    <rect x="46" y="39" width="6" height="6" fill="#f4f2f1" rx="0.5" />
    <rect x="54" y="39" width="6" height="6" fill="#f4f2f1" rx="0.5" />
    <rect x="46" y="47" width="6" height="6" fill="#f4f2f1" rx="0.5" />
    <rect x="54" y="47" width="6" height="6" fill="#f4f2f1" rx="0.5" />
    <path d="M30 76 H54 L76 54" stroke="url(#banner-grad)" stroke-width="4.5" stroke-linecap="round" stroke-linejoin="round" />
    <circle cx="80" cy="50" r="4.5" stroke="url(#banner-grad)" stroke-width="3.5" fill="#0d1417" />
    <path d="M45 84 H60 L76 68" stroke="url(#banner-grad)" stroke-width="4.5" stroke-linecap="round" stroke-linejoin="round" />
    <circle cx="80" cy="64" r="4.5" stroke="url(#banner-grad)" stroke-width="3.5" fill="#0d1417" />
    <path d="M61 90 H70 L77 83" stroke="url(#banner-grad)" stroke-width="4.5" stroke-linecap="round" stroke-linejoin="round" />
    <circle cx="80" cy="80" r="4.5" stroke="url(#banner-grad)" stroke-width="3.5" fill="#0d1417" />
  </g>

  <!-- Typography on the right -->
  <g id="banner-text">
    <text x="530" y="238" fill="#ffffff" font-family="'Space Grotesk', sans-serif" font-size="64" font-weight="700" text-anchor="start">NOVAND</text>
    <text x="530" y="295" fill="#00d2b5" font-family="'Space Grotesk', monospace" font-size="20" font-weight="600" letter-spacing="4" text-anchor="start">INTEGRATED TECH &amp; INFRASTRUCTURE</text>
    <text x="530" y="345" fill="#f4f2f1" fill-opacity="0.85" font-family="'Inter', sans-serif" font-size="18" font-weight="400" text-anchor="start">Smart Building Automation • Fiber Optic Networks</text>
    <text x="530" y="385" fill="#9ca3af" font-family="'Inter', sans-serif" font-size="16" font-weight="400" text-anchor="start">Server Infrastructure • Physical Security</text>
  </g>
</svg>